<?xml version="1.0" encoding="utf-8"?>
<!-- Generator: Adobe Illustrator 18.0.0, SVG Export Plug-In . SVG Version: 6.00 Build 0)  -->
<!DOCTYPE svg PUBLIC "-//W3C//DTD SVG 1.1//EN" "http://www.w3.org/Graphics/SVG/1.1/DTD/svg11.dtd">
<svg version="1.1" id="Layer_1" xmlns="http://www.w3.org/2000/svg" xmlns:xlink="http://www.w3.org/1999/xlink" x="0px" y="0px"
	 viewBox="92.5 117.1 262.8 100" enable-background="new 92.5 117.1 262.8 100" xml:space="preserve">
<g>
	<g>
		<rect id="background_1_" x="0" y="0" fill="none" width="448" height="336"/>
	</g>
</g>
<g>
	<polygon fill="#0084FF" points="207,118.9 121.7,134.5 121.7,154.7 130,154.7 130,141.3 198.7,128.7 198.7,207.4 121.7,194.8 
		121.7,202.9 207,217.1 	"/>
	<path d="M225.2,168c0-1.5-0.7-4.4-3.8-4.4c-2.9,0-4,2.7-4.2,4.4H225.2L225.2,168z M217.8,173.4c0.3,1.8,3,2.9,5.9,2.9
		c2.2,0,4.2-0.3,6.3-0.9l1.1,5.6c-2.8,1.1-5.8,1.5-8.6,1.5c-8.1,0-12.7-4.5-12.7-11.8c0-5.4,3.5-12.2,12-12.2
		c7.5,0,10.6,5.5,10.6,11.8c0,1.4-0.2,2.6-0.4,3.2H217.8L217.8,173.4z"/>
	<path d="M234.5,166.7c0-3.1-0.1-5.7-0.2-7.8h7.3l0.4,3h0.2c0.8-1.3,3.1-3.4,6.8-3.4c5.4,0,8.3,3.7,8.3,10V182h-8.5v-12.5
		c0-2.7-0.9-4.2-3-4.2c-1.6,0-2.4,1.2-2.8,2c-0.2,0.4-0.3,1.1-0.3,1.7V182h-8.5v-15.3L234.5,166.7L234.5,166.7z"/>
	<path d="M275.1,168.4c0-0.4-0.1-0.7-0.1-1.1c-0.4-1.6-1.4-2.6-3-2.6c-2,0-3.8,2-3.8,5.6c0,3,1.4,5.2,3.8,5.2c1.5,0,2.7-1,3-2.3
		c0.2-0.4,0.2-1.3,0.2-1.7L275.1,168.4L275.1,168.4L275.1,168.4z M283.6,178.6c0,4.1-0.8,7.8-3.6,10.3c-2.7,2.3-6.2,2.9-9.7,2.9
		c-3.1,0-6.4-0.6-8.5-1.7l1.6-6.4c1.4,0.7,4,1.6,6.7,1.6c3,0,5.3-1.6,5.3-5.2v-1h-0.1c-1.4,1.8-3.4,2.6-5.8,2.6
		c-5.6,0-9.7-4.5-9.7-11.2c0-7.3,4.7-12.1,10.4-12.1c2.8,0,4.8,1.1,5.9,3h0.1l0.3-2.4h7.3c-0.2,1.4-0.3,3.4-0.3,7.1L283.6,178.6
		L283.6,178.6L283.6,178.6z"/>
	<polygon points="287.1,149.8 295.5,149.8 295.5,181.9 287.1,181.9 	"/>
	<path d="M311.1,174.9c1.4,0.8,4.3,1.7,6.4,1.7c1.8,0,2.5-0.4,2.5-1.3c0-0.8-0.5-1.2-3-2c-5-1.6-6.8-4.3-6.8-7
		c0-4.6,3.9-7.9,9.9-7.9c2.9,0,5.4,0.6,6.8,1.4l-1.3,5.7c-1.1-0.5-3.2-1.3-5.1-1.3c-1.4,0-2.3,0.4-2.3,1.4c0,0.7,0.7,1.2,3.4,2.1
		c4.5,1.5,6.3,3.9,6.3,7.2c0,4.4-3.4,7.7-10.5,7.7c-3.2,0-6-0.7-7.8-1.6L311.1,174.9L311.1,174.9z"/>
	<path d="M330.4,149.8h8.5v11.6h0.1c0.8-0.9,1.7-1.7,2.7-2.2c1-0.5,2.3-0.8,3.5-0.8c5.2,0,8,3.7,8,10.2V182h-8.5v-12.4
		c0-2.7-0.9-4.3-3-4.3c-1.6,0-2.3,0.9-2.7,1.8c-0.2,0.4-0.3,1-0.3,1.4V182h-8.5L330.4,149.8L330.4,149.8L330.4,149.8z"/>
	<polygon points="299,158.6 307.4,158.6 307.4,181.7 299,181.7 	"/>
	<polygon points="307.3,156.6 299.2,156.6 299.2,149.6 307.3,149.6 	"/>
	<path d="M103.5,170.4c0,3.4,1.1,6.1,3.8,6.1c2.3,0,3.5-2.4,3.5-6.1c0-3.1-1-6.1-3.6-6.1C104.5,164.3,103.5,167.4,103.5,170.4
		 M119.5,170.2c0,8.4-6,12.2-12.4,12.2c-6.8,0-12.2-4.4-12.2-11.9c0-7.3,4.9-12.2,12.7-12.2C114.7,158.4,119.5,163.2,119.5,170.2"/>
	<path d="M163.4,168c0-1.5-0.7-4.4-3.8-4.4c-2.9,0-4,2.7-4.2,4.4H163.4L163.4,168z M156.1,173.4c0.3,1.8,3,2.9,5.9,2.9
		c2.2,0,4.2-0.3,6.3-0.9l1.1,5.6c-2.8,1.2-5.8,1.5-8.6,1.5c-8.1,0-12.7-4.5-12.7-11.8c0-5.4,3.5-12.2,12-12.2
		c7.5,0,10.6,5.5,10.6,11.8c0,1.4-0.2,2.6-0.4,3.2H156.1L156.1,173.4z"/>
	<path d="M172.8,166.7c0-3.1-0.1-5.7-0.2-7.8h7.3l0.4,3h0.2c0.8-1.3,3.1-3.5,6.8-3.5c5.4,0,8.3,3.7,8.3,10V182h-8.5v-12.5
		c0-2.7-0.9-4.2-3-4.2c-1.6,0-2.4,1.1-2.8,2c-0.2,0.4-0.3,1.1-0.3,1.7V182h-8.5v-15.2L172.8,166.7L172.8,166.7z"/>
	<path d="M133.5,176c-1.7,0-3-1.3-3.2-2.8c-0.1-0.4-0.2-0.9-0.2-1.4v-2.9c0-0.4,0-0.7,0.1-1.1c0.3-1.6,1.7-3,3.4-3
		c2.7,0,4,2.3,4,5.6C137.5,173.9,136,176,133.5,176 M121.6,191.5h8.5v-11.2h0.1c0.8,1.2,2.9,2.2,5.5,2.2c5,0,10.5-3.9,10.5-12.3
		c0-7.5-4.7-11.8-9.5-11.8c-3,0-4.9,1.1-6.6,3.1v-2.5h-8.5L121.6,191.5L121.6,191.5z"/>
</g>
</svg>
